<svg xmlns="http://www.w3.org/2000/svg" viewBox="0 0 160 160" width="160" height="160">
  <defs>
    <linearGradient id="mane" x1="22" y1="44" x2="126" y2="112">
      <stop offset="0" stop-color="#8be9fd"/>
      <stop offset="0.34" stop-color="#f0abfc"/>
      <stop offset="0.68" stop-color="#fef08a"/>
      <stop offset="1" stop-color="#a7f3d0"/>
    </linearGradient>
    <linearGradient id="body" x1="48" y1="44" x2="110" y2="128">
      <stop offset="0" stop-color="#fffdf3"/>
      <stop offset="1" stop-color="#e0f7ff"/>
    </linearGradient>
    <filter id="softShadow" x="-20%" y="-20%" width="140%" height="150%">
      <feDropShadow dx="0" dy="8" stdDeviation="5" flood-color="#1f2937" flood-opacity="0.26"/>
    </filter>
  </defs>
  <g filter="url(#softShadow)">
    <path d="M92 36c17 10 25 25 23 43 16 6 26 18 26 35-18 4-35 1-50-9-9 7-21 11-35 9-25-4-38-23-35-47 2-18 15-31 32-36 12-4 27-2 39 5z" fill="url(#mane)" opacity="0.9"/>
    <path d="M74 31c5-16 9-24 12-24s6 9 7 26c-5 3-13 3-19-2z" fill="#fff7c2" stroke="#facc15" stroke-width="3" stroke-linejoin="round"/>
    <path d="M55 58c2-17 14-28 31-27 17 1 28 14 27 32l-2 35c-1 22-14 37-35 36-20-1-32-16-31-38l2-35c0-1 5-2 8-3z" fill="url(#body)" stroke="#bae6fd" stroke-width="4"/>
    <path d="M53 59c-6-13-6-27-2-36 8 5 14 14 17 27-3 5-8 8-15 9z" fill="#fffdf3" stroke="#bae6fd" stroke-width="4" stroke-linejoin="round"/>
    <path d="M106 61c9-11 19-17 30-17-2 11-10 22-23 31-5-2-7-7-7-14z" fill="#fffdf3" stroke="#bae6fd" stroke-width="4" stroke-linejoin="round"/>
    <path d="M50 86c-22 3-34 14-36 31 17 2 33-5 45-19" fill="#f0f9ff" stroke="#bae6fd" stroke-width="4" stroke-linecap="round" stroke-linejoin="round"/>
    <path d="M109 88c18 1 30 10 35 25-14 4-30 0-43-11" fill="#f0f9ff" stroke="#bae6fd" stroke-width="4" stroke-linecap="round" stroke-linejoin="round"/>
    <circle cx="70" cy="78" r="5" fill="#111827"/>
    <circle cx="95" cy="78" r="5" fill="#111827"/>
    <path d="M76 96c5 4 12 4 17 0" fill="none" stroke="#475569" stroke-width="4" stroke-linecap="round"/>
    <path d="M63 47c11-9 30-10 43 1-13 3-29 4-43-1z" fill="#fff7c2" opacity="0.8"/>
    <path d="M66 124c-2 12-9 22-20 28" stroke="#e0f7ff" stroke-width="10" stroke-linecap="round"/>
    <path d="M98 123c2 12 8 22 19 28" stroke="#e0f7ff" stroke-width="10" stroke-linecap="round"/>
  </g>
  <g fill="#fff7c2" stroke="#facc15" stroke-width="1.5">
    <path d="M28 27l3 7 7 3-7 3-3 7-3-7-7-3 7-3z"/>
    <path d="M132 25l2 5 5 2-5 2-2 5-2-5-5-2 5-2z"/>
    <path d="M130 132l3 6 6 3-6 3-3 6-3-6-6-3 6-3z"/>
  </g>
</svg>
